<mxfile host="65bd71144e">
    <diagram id="EV65yb_jjW9IthwbfgZv" name="Page-1">
        <mxGraphModel dx="1715" dy="1142" grid="1" gridSize="10" guides="1" tooltips="1" connect="1" arrows="1" fold="1" page="1" pageScale="1" pageWidth="827" pageHeight="1169" math="0" shadow="0">
            <root>
                <mxCell id="0"/>
                <mxCell id="1" parent="0"/>
                <mxCell id="HSNwQ3O_0nQfxcZKa0X5-3" style="edgeStyle=orthogonalEdgeStyle;rounded=1;orthogonalLoop=1;jettySize=auto;html=1;exitX=0.25;exitY=0;exitDx=0;exitDy=0;fontSize=13;shape=flexArrow;" parent="1" source="1uaCHu3Pwth4PD7MlHN_-7" target="B6evqfIJlXMsKJtfPlcZ-13" edge="1">
                    <mxGeometry relative="1" as="geometry"/>
                </mxCell>
                <mxCell id="HSNwQ3O_0nQfxcZKa0X5-4" style="edgeStyle=orthogonalEdgeStyle;rounded=1;orthogonalLoop=1;jettySize=auto;html=1;exitX=0.75;exitY=0;exitDx=0;exitDy=0;entryX=0.5;entryY=1;entryDx=0;entryDy=0;fontSize=13;shape=flexArrow;" parent="1" source="1uaCHu3Pwth4PD7MlHN_-7" target="HSNwQ3O_0nQfxcZKa0X5-1" edge="1">
                    <mxGeometry relative="1" as="geometry"/>
                </mxCell>
                <mxCell id="1uaCHu3Pwth4PD7MlHN_-7" value="" style="rounded=1;whiteSpace=wrap;html=1;" parent="1" vertex="1">
                    <mxGeometry x="121" y="470" width="550" height="230" as="geometry"/>
                </mxCell>
                <mxCell id="B6evqfIJlXMsKJtfPlcZ-7" value="" style="edgeStyle=orthogonalEdgeStyle;rounded=1;orthogonalLoop=1;jettySize=auto;html=1;fontSize=13;" parent="1" source="1uaCHu3Pwth4PD7MlHN_-1" target="B6evqfIJlXMsKJtfPlcZ-6" edge="1">
                    <mxGeometry relative="1" as="geometry"/>
                </mxCell>
                <mxCell id="1uaCHu3Pwth4PD7MlHN_-1" value="&lt;b&gt;&lt;font style=&quot;font-size: 13px&quot;&gt;BERT&lt;br&gt;(Embeddings + Encoder + Pooler)&lt;br&gt;&lt;/font&gt;&lt;/b&gt;" style="rounded=1;whiteSpace=wrap;html=1;" parent="1" vertex="1">
                    <mxGeometry x="176" y="611" width="440" height="60" as="geometry"/>
                </mxCell>
                <mxCell id="1uaCHu3Pwth4PD7MlHN_-12" value="&lt;b&gt;&lt;font style=&quot;font-size: 19px&quot;&gt;SHARED&lt;/font&gt;&lt;/b&gt;" style="text;html=1;strokeColor=none;fillColor=none;align=center;verticalAlign=middle;whiteSpace=wrap;rounded=1;" parent="1" vertex="1">
                    <mxGeometry x="140" y="480" width="100" height="40" as="geometry"/>
                </mxCell>
                <mxCell id="HSNwQ3O_0nQfxcZKa0X5-12" style="edgeStyle=orthogonalEdgeStyle;shape=flexArrow;rounded=1;orthogonalLoop=1;jettySize=auto;html=1;exitX=0.5;exitY=0;exitDx=0;exitDy=0;entryX=0.25;entryY=1;entryDx=0;entryDy=0;fontSize=19;" parent="1" source="1uaCHu3Pwth4PD7MlHN_-13" target="B6evqfIJlXMsKJtfPlcZ-8" edge="1">
                    <mxGeometry relative="1" as="geometry"/>
                </mxCell>
                <mxCell id="1uaCHu3Pwth4PD7MlHN_-13" value="&lt;b&gt;STATE&lt;/b&gt;" style="text;html=1;strokeColor=none;fillColor=none;align=center;verticalAlign=middle;whiteSpace=wrap;rounded=1;fontSize=19;" parent="1" vertex="1">
                    <mxGeometry x="223" y="860" width="73" height="30" as="geometry"/>
                </mxCell>
                <mxCell id="HSNwQ3O_0nQfxcZKa0X5-13" style="edgeStyle=orthogonalEdgeStyle;shape=flexArrow;rounded=1;orthogonalLoop=1;jettySize=auto;html=1;exitX=0.5;exitY=0;exitDx=0;exitDy=0;entryX=0.75;entryY=1;entryDx=0;entryDy=0;fontSize=19;" parent="1" source="1uaCHu3Pwth4PD7MlHN_-14" target="B6evqfIJlXMsKJtfPlcZ-8" edge="1">
                    <mxGeometry relative="1" as="geometry"/>
                </mxCell>
                <mxCell id="1uaCHu3Pwth4PD7MlHN_-14" value="&lt;b&gt;ACTION&lt;/b&gt;" style="text;html=1;strokeColor=none;fillColor=none;align=center;verticalAlign=middle;whiteSpace=wrap;rounded=1;fontSize=19;" parent="1" vertex="1">
                    <mxGeometry x="494.5" y="860" width="79" height="30" as="geometry"/>
                </mxCell>
                <mxCell id="B6evqfIJlXMsKJtfPlcZ-6" value="&lt;b&gt;&lt;font style=&quot;font-size: 13px&quot;&gt;Fully Connected&lt;/font&gt;&lt;/b&gt;" style="rounded=1;whiteSpace=wrap;html=1;" parent="1" vertex="1">
                    <mxGeometry x="176" y="525" width="440" height="60" as="geometry"/>
                </mxCell>
                <mxCell id="B6evqfIJlXMsKJtfPlcZ-8" value="" style="rounded=1;whiteSpace=wrap;html=1;fontSize=13;" parent="1" vertex="1">
                    <mxGeometry x="121" y="750" width="551" height="60" as="geometry"/>
                </mxCell>
                <mxCell id="B6evqfIJlXMsKJtfPlcZ-10" value="" style="shape=flexArrow;endArrow=classic;html=1;rounded=1;fontSize=13;exitX=0.75;exitY=0;exitDx=0;exitDy=0;entryX=0.75;entryY=1;entryDx=0;entryDy=0;" parent="1" source="B6evqfIJlXMsKJtfPlcZ-8" target="1uaCHu3Pwth4PD7MlHN_-7" edge="1">
                    <mxGeometry width="50" height="50" relative="1" as="geometry">
                        <mxPoint x="372" y="760" as="sourcePoint"/>
                        <mxPoint x="422" y="710" as="targetPoint"/>
                    </mxGeometry>
                </mxCell>
                <mxCell id="B6evqfIJlXMsKJtfPlcZ-11" value="" style="shape=flexArrow;endArrow=classic;html=1;rounded=1;fontSize=13;exitX=0.25;exitY=0;exitDx=0;exitDy=0;entryX=0.25;entryY=1;entryDx=0;entryDy=0;" parent="1" source="B6evqfIJlXMsKJtfPlcZ-8" target="1uaCHu3Pwth4PD7MlHN_-7" edge="1">
                    <mxGeometry width="50" height="50" relative="1" as="geometry">
                        <mxPoint x="372" y="760" as="sourcePoint"/>
                        <mxPoint x="292" y="740" as="targetPoint"/>
                    </mxGeometry>
                </mxCell>
                <mxCell id="B6evqfIJlXMsKJtfPlcZ-12" value="&lt;b&gt;&lt;font style=&quot;font-size: 19px&quot;&gt;TOKENIZER&lt;/font&gt;&lt;/b&gt;" style="text;html=1;strokeColor=none;fillColor=none;align=center;verticalAlign=middle;whiteSpace=wrap;rounded=1;" parent="1" vertex="1">
                    <mxGeometry x="320" y="760" width="154" height="40" as="geometry"/>
                </mxCell>
                <mxCell id="HSNwQ3O_0nQfxcZKa0X5-7" style="edgeStyle=orthogonalEdgeStyle;shape=flexArrow;rounded=1;orthogonalLoop=1;jettySize=auto;html=1;exitX=0.5;exitY=0;exitDx=0;exitDy=0;entryX=0.25;entryY=1;entryDx=0;entryDy=0;fontSize=13;" parent="1" source="B6evqfIJlXMsKJtfPlcZ-13" target="B6evqfIJlXMsKJtfPlcZ-14" edge="1">
                    <mxGeometry relative="1" as="geometry"/>
                </mxCell>
                <mxCell id="B6evqfIJlXMsKJtfPlcZ-13" value="&lt;b&gt;&lt;font style=&quot;font-size: 19px&quot;&gt;STATE&lt;/font&gt;&lt;br&gt;Fully Connected&lt;br&gt;&lt;/b&gt;" style="rounded=1;whiteSpace=wrap;html=1;fontSize=13;" parent="1" vertex="1">
                    <mxGeometry x="199" y="360" width="120" height="60" as="geometry"/>
                </mxCell>
                <mxCell id="HSNwQ3O_0nQfxcZKa0X5-8" style="edgeStyle=orthogonalEdgeStyle;shape=flexArrow;rounded=1;orthogonalLoop=1;jettySize=auto;html=1;exitX=0.5;exitY=0;exitDx=0;exitDy=0;fontSize=13;" parent="1" source="B6evqfIJlXMsKJtfPlcZ-14" edge="1">
                    <mxGeometry relative="1" as="geometry">
                        <mxPoint x="396" y="190" as="targetPoint"/>
                    </mxGeometry>
                </mxCell>
                <mxCell id="B6evqfIJlXMsKJtfPlcZ-14" value="&lt;b&gt;&lt;font style=&quot;font-size: 19px&quot;&gt;OUTPUT&lt;/font&gt;&lt;br&gt;Fully Connected&lt;/b&gt;" style="rounded=1;whiteSpace=wrap;html=1;fontSize=13;" parent="1" vertex="1">
                    <mxGeometry x="199" y="250" width="393" height="60" as="geometry"/>
                </mxCell>
                <mxCell id="HSNwQ3O_0nQfxcZKa0X5-6" style="edgeStyle=orthogonalEdgeStyle;shape=flexArrow;rounded=1;orthogonalLoop=1;jettySize=auto;html=1;exitX=0.5;exitY=0;exitDx=0;exitDy=0;entryX=0.75;entryY=1;entryDx=0;entryDy=0;fontSize=13;" parent="1" source="HSNwQ3O_0nQfxcZKa0X5-1" target="B6evqfIJlXMsKJtfPlcZ-14" edge="1">
                    <mxGeometry relative="1" as="geometry"/>
                </mxCell>
                <mxCell id="HSNwQ3O_0nQfxcZKa0X5-1" value="&lt;b&gt;&lt;font style=&quot;font-size: 19px&quot;&gt;ACTION&lt;/font&gt;&lt;br&gt;Fully Connected&lt;br&gt;&lt;/b&gt;" style="rounded=1;whiteSpace=wrap;html=1;fontSize=13;" parent="1" vertex="1">
                    <mxGeometry x="473" y="360" width="120" height="60" as="geometry"/>
                </mxCell>
            </root>
        </mxGraphModel>
    </diagram>
</mxfile>